# xmcd CD database file
#
# Track frame offsets:
#	150
#	13149
#	26243
#	42939
#	60116
#	72958
#	88557
#	103097
#	118248
#	132888
#
# Disc length: 1994 seconds
#
# Revision: 0
# Processed by: cddbd v1.5.2PL0 Copyright (c) Steve Scherf et al.
# Submitted via: CDex 1.70beta3
#
DISCID=8407c80a
DTITLE=Charlie Shavers - The Most Intimate
DYEAR=1955
DGENRE=Jazz
TTITLE0=Stella By Starlight
TTITLE1=Ill Wind
TTITLE2=Stomy Weather
TTITLE3=Out Of Nowhere
TTITLE4=Easy To Remember
TTITLE5=Stardust
TTITLE6=I Cover The Waterfront
TTITLE7=Memories Of You
TTITLE8=You're Mine You
TTITLE9=Let's Fall In Love
EXTD=YEAR: 1955
EXTT0=
EXTT1=
EXTT2=
EXTT3=
EXTT4=
EXTT5=
EXTT6=
EXTT7=
EXTT8=
EXTT9=
PLAYORDER=
